<svg width="128" height="128" viewBox="0 0 128 128" fill="none" xmlns="http://www.w3.org/2000/svg">
<g clip-path="url(#clip0_1213_57)">
<path d="M43.9385 8.27541C43.9385 2.35188 51.5185 -0.110998 55.0002 4.68124L74.7521 31.8674C76.3092 34.0105 79.0692 34.9073 81.5886 34.0887L113.548 23.7045C119.181 21.874 123.866 28.322 120.384 33.1142L100.633 60.3004C99.0754 62.4435 99.0754 65.3456 100.633 67.4887L120.384 94.6749C123.866 99.4671 119.181 105.915 113.548 104.085L81.5886 93.7004C79.0692 92.8817 76.3092 93.7785 74.7521 95.9217L55.0002 123.108C51.5185 127.9 43.9385 125.437 43.9385 119.514L43.9385 85.9097C43.9385 83.2606 42.2327 80.9128 39.7133 80.0942L7.75403 69.71C2.12041 67.8796 2.12043 59.9095 7.75404 58.079L39.7133 47.6948C42.2327 46.8762 43.9385 44.5284 43.9385 41.8793L43.9385 8.27541Z" fill="url(#paint0_radial_1213_57)" stroke="#DBADFF" stroke-width="4.28035"/>
<path d="M75.3435 31.3278C77.2585 28.6921 81.4275 30.0467 81.4275 33.3046L81.4275 51.7868C81.4275 53.2438 82.3657 54.5351 83.7514 54.9853L101.329 60.6966C104.427 61.7033 104.427 66.0869 101.329 67.0936L83.7514 72.8049C82.3657 73.2552 81.4275 74.5465 81.4275 76.0035L81.4275 94.4856C81.4275 97.7436 77.2585 99.0981 75.3435 96.4624L64.48 81.51C63.6236 80.3313 62.1056 79.8381 60.7199 80.2883L43.1423 85.9996C40.0438 87.0064 37.4673 83.46 39.3822 80.8243L50.2458 65.8719C51.1022 64.6932 51.1022 63.0971 50.2458 61.9183L39.3822 46.9659C37.4673 44.3302 40.0438 40.7839 43.1423 41.7906L60.7199 47.5019C62.1056 47.9521 63.6236 47.4589 64.48 46.2802L75.3435 31.3278Z" fill="#7B63D9" stroke="#CF92FF" stroke-width="5.50331"/>
</g>
<defs>
<radialGradient id="paint0_radial_1213_57" cx="0" cy="0" r="1" gradientUnits="userSpaceOnUse" gradientTransform="translate(68.125 63.8945) rotate(72) scale(78.2692)">
<stop stop-color="#8467F9"/>
<stop offset="0.500802" stop-color="#4A3A8A"/>
<stop offset="1" stop-color="#29186A"/>
</radialGradient>
<clipPath id="clip0_1213_57">
<rect width="128" height="128" fill="white"/>
</clipPath>
</defs>
</svg>
