<svg viewBox="0 0 2036 410" fill="none" xmlns="http://www.w3.org/2000/svg">
<g clip-path="url(#clip0_1111_35)">
<g clip-path="url(#clip1_1111_35)">
<path d="M151.176 58.9299C151.176 43.4303 171.01 36.9859 180.121 49.5253L231.804 120.661C235.878 126.269 243.1 128.615 249.692 126.473L333.317 99.3018C348.058 94.5122 360.316 111.384 351.205 123.923L299.522 195.059C295.448 200.667 295.448 208.26 299.522 213.868L351.205 285.003C360.316 297.543 348.058 314.414 333.317 309.625L249.692 282.454C243.1 280.312 235.878 282.658 231.804 288.266L180.121 359.401C171.01 371.941 151.176 365.496 151.176 349.997L151.176 262.068C151.176 255.137 146.713 248.994 140.121 246.852L56.4958 219.68C41.7548 214.891 41.7548 194.036 56.4958 189.246L140.121 162.075C146.713 159.933 151.176 153.79 151.176 146.858L151.176 58.9299Z" fill="url(#paint0_radial_1111_35)" stroke="#DBADFF" stroke-width="11.2"/>
<path d="M233.351 119.248C238.362 112.351 249.271 115.896 249.271 124.421L249.271 172.781C249.271 176.594 251.725 179.972 255.351 181.15L301.345 196.095C309.452 198.729 309.452 210.199 301.345 212.833L255.351 227.778C251.725 228.956 249.271 232.334 249.271 236.147L249.271 284.507C249.271 293.032 238.362 296.577 233.351 289.68L204.926 250.555C202.685 247.471 198.713 246.18 195.087 247.359L149.093 262.303C140.986 264.937 134.244 255.658 139.255 248.761L167.68 209.636C169.921 206.552 169.921 202.376 167.68 199.291L139.255 160.167C134.244 153.27 140.986 143.991 149.093 146.625L195.087 161.569C198.713 162.747 202.685 161.457 204.926 158.373L233.351 119.248Z" fill="#7B63D9" stroke="#CF92FF" stroke-width="14.4"/>
</g>
<path d="M518.769 313.921C503.883 313.921 490.807 310.501 479.542 303.661C468.478 296.822 459.827 287.467 453.591 275.599C447.556 263.73 444.539 250.252 444.539 235.164C444.539 220.077 447.657 206.699 453.893 195.031C460.129 183.162 468.779 173.909 479.844 167.27C490.908 160.431 503.984 157.011 519.071 157.011C531.342 157.011 542.205 159.525 551.66 164.555C561.115 169.584 568.457 176.625 573.688 185.677V93.0398H599.035V310.3H576.102L573.688 285.556C568.86 292.798 561.92 299.336 552.867 305.17C543.815 311.004 532.449 313.921 518.769 313.921ZM521.485 291.893C531.543 291.893 540.395 289.58 548.039 284.953C555.885 280.125 561.92 273.486 566.144 265.037C570.57 256.588 572.783 246.731 572.783 235.466C572.783 224.2 570.57 214.343 566.144 205.894C561.92 197.445 555.885 190.907 548.039 186.281C540.395 181.453 531.543 179.039 521.485 179.039C511.628 179.039 502.777 181.453 494.931 186.281C487.287 190.907 481.252 197.445 476.826 205.894C472.602 214.343 470.489 224.2 470.489 235.466C470.489 246.731 472.602 256.588 476.826 265.037C481.252 273.486 487.287 280.125 494.931 284.953C502.777 289.58 511.628 291.893 521.485 291.893ZM690.142 313.921C677.67 313.921 667.31 311.809 659.062 307.584C650.814 303.36 644.678 297.727 640.655 290.686C636.632 283.645 634.62 276.001 634.62 267.753C634.62 252.464 640.454 240.696 652.122 232.448C663.789 224.2 679.681 220.077 699.798 220.077H740.233V218.266C740.233 205.19 736.813 195.333 729.973 188.695C723.133 181.855 713.98 178.435 702.514 178.435C692.657 178.435 684.107 180.95 676.865 185.979C669.824 190.807 665.399 197.948 663.588 207.403H637.638C638.643 196.54 642.264 187.387 648.501 179.944C654.938 172.501 662.884 166.868 672.339 163.046C681.794 159.022 691.852 157.011 702.514 157.011C723.435 157.011 739.126 162.643 749.587 173.909C760.249 184.973 765.58 199.759 765.58 218.266V310.3H742.948L741.44 283.444C737.215 291.893 730.979 299.135 722.731 305.17C714.684 311.004 703.821 313.921 690.142 313.921ZM694.065 292.497C703.721 292.497 711.969 289.982 718.808 284.953C725.849 279.924 731.18 273.386 734.801 265.339C738.422 257.292 740.233 248.843 740.233 239.992V239.69H701.91C687.024 239.69 676.463 242.305 670.227 247.536C664.192 252.565 661.174 258.902 661.174 266.546C661.174 274.392 663.99 280.728 669.623 285.556C675.457 290.183 683.604 292.497 694.065 292.497ZM818.994 127.439C813.965 127.439 809.74 125.83 806.321 122.611C803.102 119.191 801.493 114.967 801.493 109.938C801.493 105.11 803.102 101.086 806.321 97.8678C809.74 94.6491 813.965 93.0398 818.994 93.0398C823.822 93.0398 827.946 94.6491 831.366 97.8678C834.786 101.086 836.496 105.11 836.496 109.938C836.496 114.967 834.786 119.191 831.366 122.611C827.946 125.83 823.822 127.439 818.994 127.439ZM806.321 310.3V160.632H831.668V310.3H806.321ZM875.801 310.3V160.632H898.734L900.544 182.358C905.372 174.311 911.81 168.075 919.856 163.649C927.903 159.224 936.956 157.011 947.014 157.011C958.883 157.011 969.042 159.425 977.491 164.253C986.141 169.081 992.779 176.423 997.406 186.281C1002.64 177.228 1009.78 170.087 1018.83 164.856C1028.08 159.626 1038.04 157.011 1048.7 157.011C1066.61 157.011 1080.89 162.442 1091.55 173.305C1102.21 183.967 1107.54 200.463 1107.54 222.792V310.3H1082.5V225.508C1082.5 210.018 1079.38 198.351 1073.15 190.505C1066.91 182.66 1057.96 178.737 1046.29 178.737C1034.22 178.737 1024.16 183.464 1016.11 192.919C1008.27 202.173 1004.35 215.45 1004.35 232.75V310.3H978.999V225.508C978.999 210.018 975.881 198.351 969.645 190.505C963.409 182.66 954.457 178.737 942.789 178.737C930.921 178.737 920.963 183.464 912.916 192.919C905.071 202.173 901.148 215.45 901.148 232.75V310.3H875.801ZM1213.92 313.921C1199.84 313.921 1187.17 310.702 1175.9 304.265C1164.64 297.827 1155.68 288.775 1149.04 277.107C1142.61 265.238 1139.39 251.358 1139.39 235.466C1139.39 219.574 1142.71 205.794 1149.35 194.126C1155.99 182.257 1164.94 173.104 1176.2 166.667C1187.67 160.229 1200.44 157.011 1214.52 157.011C1228.61 157.011 1241.28 160.229 1252.55 166.667C1263.81 173.104 1272.66 182.257 1279.1 194.126C1285.74 205.794 1289.06 219.574 1289.06 235.466C1289.06 251.358 1285.74 265.238 1279.1 277.107C1272.46 288.775 1263.41 297.827 1251.94 304.265C1240.68 310.702 1228 313.921 1213.92 313.921ZM1213.92 292.195C1222.57 292.195 1230.62 290.083 1238.06 285.858C1245.5 281.634 1251.54 275.297 1256.17 266.848C1260.79 258.399 1263.11 247.938 1263.11 235.466C1263.11 222.993 1260.79 212.533 1256.17 204.084C1251.74 195.635 1245.81 189.298 1238.36 185.074C1230.92 180.849 1222.97 178.737 1214.52 178.737C1205.87 178.737 1197.83 180.849 1190.38 185.074C1182.94 189.298 1176.91 195.635 1172.28 204.084C1167.65 212.533 1165.34 222.993 1165.34 235.466C1165.34 247.938 1167.65 258.399 1172.28 266.848C1176.91 275.297 1182.84 281.634 1190.08 285.858C1197.53 290.083 1205.47 292.195 1213.92 292.195ZM1324.3 310.3V160.632H1347.23L1348.74 187.488C1353.57 178.033 1360.51 170.59 1369.56 165.158C1378.62 159.727 1388.87 157.011 1400.34 157.011C1418.04 157.011 1432.13 162.442 1442.59 173.305C1453.25 183.967 1458.58 200.463 1458.58 222.792V310.3H1433.23V225.508C1433.23 194.327 1420.36 178.737 1394.61 178.737C1381.73 178.737 1370.97 183.464 1362.32 192.919C1353.87 202.173 1349.65 215.45 1349.65 232.75V310.3H1324.3ZM1564.88 313.921C1549.99 313.921 1536.91 310.501 1525.65 303.661C1514.58 296.822 1505.93 287.467 1499.7 275.599C1493.66 263.73 1490.64 250.252 1490.64 235.164C1490.64 220.077 1493.76 206.699 1500 195.031C1506.24 183.162 1514.89 173.909 1525.95 167.27C1537.01 160.431 1550.09 157.011 1565.18 157.011C1577.45 157.011 1588.31 159.525 1597.77 164.555C1607.22 169.584 1614.56 176.625 1619.79 185.677V93.0398H1645.14V310.3H1622.21L1619.79 285.556C1614.97 292.798 1608.03 299.336 1598.97 305.17C1589.92 311.004 1578.55 313.921 1564.88 313.921ZM1567.59 291.893C1577.65 291.893 1586.5 289.58 1594.15 284.953C1601.99 280.125 1608.03 273.486 1612.25 265.037C1616.68 256.588 1618.89 246.731 1618.89 235.466C1618.89 224.2 1616.68 214.343 1612.25 205.894C1608.03 197.445 1601.99 190.907 1594.15 186.281C1586.5 181.453 1577.65 179.039 1567.59 179.039C1557.73 179.039 1548.88 181.453 1541.04 186.281C1533.39 190.907 1527.36 197.445 1522.93 205.894C1518.71 214.343 1516.6 224.2 1516.6 235.466C1516.6 246.731 1518.71 256.588 1522.93 265.037C1527.36 273.486 1533.39 280.125 1541.04 284.953C1548.88 289.58 1557.73 291.893 1567.59 291.893ZM1708.79 310.3V127.439L1674.69 134.983V117.482L1717.24 99.0748H1734.44V310.3H1708.79ZM1799.84 310.3V127.439L1765.75 134.983V117.482L1808.29 99.0748H1825.49V310.3H1799.84ZM1935.86 313.921C1922.38 313.921 1910.21 311.507 1899.35 306.679C1888.49 301.65 1879.73 294.206 1873.1 284.349C1866.66 274.492 1863.24 262.221 1862.84 247.536H1888.49C1888.69 259.606 1892.91 270.066 1901.16 278.918C1909.41 287.568 1920.97 291.893 1935.86 291.893C1950.75 291.893 1961.91 287.769 1969.35 279.521C1977 271.273 1980.82 261.316 1980.82 249.648C1980.82 239.791 1978.41 231.744 1973.58 225.508C1968.95 219.272 1962.62 214.645 1954.57 211.628C1946.72 208.61 1938.07 207.101 1928.62 207.101H1912.93V185.677H1928.62C1942.3 185.677 1952.96 182.559 1960.6 176.323C1968.45 170.087 1972.37 161.336 1972.37 150.071C1972.37 140.616 1969.25 132.871 1963.02 126.836C1956.98 120.6 1947.93 117.482 1935.86 117.482C1924.19 117.482 1914.84 121.002 1907.8 128.043C1900.76 134.882 1896.83 143.533 1896.03 153.993H1870.38C1870.98 142.527 1874 132.368 1879.43 123.517C1885.07 114.665 1892.71 107.826 1902.37 102.998C1912.02 97.9684 1923.19 95.4538 1935.86 95.4538C1949.54 95.4538 1960.91 97.8678 1969.96 102.696C1979.21 107.524 1986.15 113.961 1990.78 122.008C1995.61 130.054 1998.02 138.906 1998.02 148.562C1998.02 159.224 1995.1 168.98 1989.27 177.832C1983.44 186.482 1974.69 192.316 1963.02 195.333C1975.49 197.948 1985.85 203.883 1994.1 213.136C2002.35 222.39 2006.47 234.561 2006.47 249.648C2006.47 261.316 2003.75 272.078 1998.32 281.935C1993.09 291.591 1985.25 299.336 1974.79 305.17C1964.33 311.004 1951.35 313.921 1935.86 313.921Z" fill="#DCCCFF"/>
</g>
<defs>
<radialGradient id="paint0_radial_1111_35" cx="0" cy="0" r="1" gradientUnits="userSpaceOnUse" gradientTransform="translate(214.463 204.463) rotate(72) scale(204.8)">
<stop stop-color="#8467F9"/>
<stop offset="0.500802" stop-color="#4A3A8A"/>
<stop offset="1" stop-color="#29186A"/>
</radialGradient>
<clipPath id="clip0_1111_35">
<rect width="2035.6" height="409.6" fill="white"/>
</clipPath>
<clipPath id="clip1_1111_35">
<rect width="409.6" height="409.6" fill="white" transform="translate(10)"/>
</clipPath>
</defs>
</svg>
