<svg viewBox="0 0 512 512" fill="none" xmlns="http://www.w3.org/2000/svg">
<g clip-path="url(#clip0_1208_21)">
<path d="M175.754 33.1016C175.754 9.4075 206.074 -0.443994 220.001 18.725L299.008 127.47C305.237 136.042 316.277 139.629 326.355 136.355L454.191 94.8181C476.726 87.4962 495.465 113.288 481.538 132.457L402.53 241.201C396.302 249.774 396.302 261.382 402.53 269.955L481.538 378.699C495.465 397.868 476.726 423.66 454.191 416.338L326.355 374.801C316.277 371.527 305.237 375.114 299.008 383.687L220.001 492.431C206.074 511.6 175.754 501.749 175.754 478.055L175.754 343.639C175.754 333.043 168.931 323.651 158.853 320.377L31.0161 278.84C8.48165 271.518 8.48171 239.638 31.0162 232.316L158.853 190.779C168.931 187.505 175.754 178.114 175.754 167.517L175.754 33.1016Z" fill="url(#paint0_radial_1208_21)" stroke="#DBADFF" stroke-width="17.1214"/>
<path d="M301.375 125.31C309.034 114.767 325.71 120.186 325.71 133.217L325.71 207.146C325.71 212.974 329.463 218.139 335.006 219.94L405.316 242.785C417.71 246.812 417.71 264.347 405.316 268.374L335.006 291.219C329.463 293.02 325.71 298.185 325.71 304.013L325.71 377.941C325.71 390.973 309.034 396.392 301.375 385.849L257.92 326.039C254.495 321.324 248.423 319.351 242.88 321.152L172.57 343.997C160.176 348.025 149.87 333.839 157.529 323.296L200.984 263.487C204.409 258.772 204.409 252.387 200.984 247.672L157.529 187.863C149.87 177.32 160.176 163.134 172.57 167.161L242.88 190.007C248.423 191.808 254.495 189.835 257.92 185.12L301.375 125.31Z" fill="#7B63D9" stroke="#CF92FF" stroke-width="22.0132"/>
</g>
<defs>
<radialGradient id="paint0_radial_1208_21" cx="0" cy="0" r="1" gradientUnits="userSpaceOnUse" gradientTransform="translate(272.5 255.578) rotate(72) scale(313.077)">
<stop stop-color="#8467F9"/>
<stop offset="0.500802" stop-color="#4A3A8A"/>
<stop offset="1" stop-color="#29186A"/>
</radialGradient>
<clipPath id="clip0_1208_21">
<rect width="512" height="512" fill="white"/>
</clipPath>
</defs>
</svg>
