<svg viewBox="0 0 512 512" fill="none" xmlns="http://www.w3.org/2000/svg">
<path fill-rule="evenodd" clip-rule="evenodd" d="M220.001 18.725C206.074 -0.443941 175.754 9.40755 175.754 33.1017V156.624C175.826 156.646 175.899 156.67 175.971 156.693L246.281 179.538C247.289 179.866 248.393 179.507 249.016 178.65L292.47 118.84C292.515 118.779 292.56 118.717 292.605 118.656L220.001 18.725ZM336.716 132.988C336.717 133.064 336.717 133.141 336.717 133.217L336.717 207.146C336.717 208.205 337.399 209.144 338.407 209.472L408.717 232.317C408.79 232.34 408.862 232.364 408.933 232.388L481.538 132.457C495.465 113.288 476.726 87.4962 454.191 94.8181L336.716 132.988ZM408.934 278.77C408.862 278.794 408.79 278.817 408.717 278.841L338.407 301.686C337.399 302.014 336.717 302.953 336.717 304.012V377.941C336.717 378.017 336.717 378.093 336.716 378.168L454.191 416.338C476.726 423.66 495.465 397.868 481.538 378.699L408.934 278.77ZM292.604 392.501C292.559 392.44 292.515 392.379 292.47 392.318L249.016 332.508C248.393 331.651 247.289 331.292 246.281 331.62L175.971 354.465C175.899 354.488 175.826 354.512 175.754 354.534L175.754 478.055C175.754 501.749 206.074 511.6 220.001 492.431L292.604 392.501ZM148.492 317.01C148.536 316.949 148.58 316.888 148.625 316.826L192.079 257.017C192.702 256.159 192.702 254.999 192.079 254.141L148.625 194.332C148.58 194.27 148.535 194.208 148.491 194.146L31.0161 232.316C8.48164 239.638 8.48159 271.518 31.0161 278.84L148.492 317.01Z" fill="currentColor"/>
<path d="M220.001 18.725L213.075 23.7569L213.075 23.7569L220.001 18.725ZM175.754 156.624H167.193V162.897L173.175 164.787L175.754 156.624ZM175.971 156.693L178.616 148.551L178.616 148.551L175.971 156.693ZM246.281 179.538L248.927 171.397L248.927 171.397L246.281 179.538ZM249.016 178.65L255.942 183.682L255.942 183.682L249.016 178.65ZM292.47 118.84L285.545 113.808L285.544 113.808L292.47 118.84ZM292.605 118.656L299.489 123.745L303.219 118.7L299.531 113.624L292.605 118.656ZM336.717 133.217L328.156 133.217L328.156 133.217L336.717 133.217ZM336.716 132.988L334.071 124.846L328.103 126.786L328.156 133.06L336.716 132.988ZM336.717 207.146L345.278 207.146L345.278 207.146L336.717 207.146ZM338.407 209.472L335.762 217.614L335.762 217.614L338.407 209.472ZM408.717 232.317L406.072 240.459L406.073 240.459L408.717 232.317ZM408.933 232.388L406.222 240.508L412.172 242.495L415.859 237.42L408.933 232.388ZM481.538 132.457L488.463 137.489L488.463 137.489L481.538 132.457ZM454.191 94.8181L456.837 102.96L456.837 102.96L454.191 94.8181ZM408.717 278.841L406.072 270.699L406.072 270.699L408.717 278.841ZM408.934 278.77L415.86 273.738L412.172 268.662L406.221 270.65L408.934 278.77ZM338.407 301.686L341.052 309.828L341.053 309.828L338.407 301.686ZM336.716 378.168L328.156 378.099L328.105 384.371L334.071 386.31L336.716 378.168ZM454.191 416.338L456.837 408.196L456.837 408.196L454.191 416.338ZM481.538 378.699L474.612 383.731L474.612 383.731L481.538 378.699ZM292.47 392.318L285.544 397.35L285.545 397.35L292.47 392.318ZM292.604 392.501L299.53 397.533L303.217 392.458L299.489 387.413L292.604 392.501ZM249.016 332.508L255.942 327.476L255.942 327.476L249.016 332.508ZM246.281 331.62L248.927 339.761L248.927 339.761L246.281 331.62ZM175.971 354.465L178.615 362.607L178.616 362.607L175.971 354.465ZM175.754 354.534L173.175 346.371L167.193 348.261L167.193 354.534L175.754 354.534ZM175.754 478.055L184.315 478.055L184.315 478.055L175.754 478.055ZM220.001 492.431L213.075 487.399L213.075 487.399L220.001 492.431ZM148.625 316.826L141.699 311.794L141.699 311.794L148.625 316.826ZM148.492 317.01L145.847 325.152L151.813 327.091L155.459 321.986L148.492 317.01ZM192.079 257.017L185.153 251.985L185.153 251.985L192.079 257.017ZM192.079 254.141L199.005 249.11L199.005 249.11L192.079 254.141ZM148.625 194.332L155.551 189.3L155.551 189.3L148.625 194.332ZM148.491 194.146L155.458 189.171L151.812 184.066L145.846 186.004L148.491 194.146ZM31.0161 232.316L28.3707 224.174L28.3707 224.174L31.0161 232.316ZM31.0161 278.84L28.3707 286.982L28.3707 286.982L31.0161 278.84ZM184.315 33.1017C184.315 17.7005 204.022 11.297 213.075 23.7569L226.927 13.6932C208.125 -12.1849 167.193 1.11456 167.193 33.1017H184.315ZM184.315 156.624V33.1017H167.193V156.624H184.315ZM178.616 148.551C178.521 148.521 178.427 148.49 178.333 148.46L173.175 164.787C173.226 164.803 173.276 164.819 173.326 164.835L178.616 148.551ZM248.927 171.397L178.616 148.551L173.326 164.835L243.636 187.68L248.927 171.397ZM242.09 173.618C243.647 171.475 246.407 170.578 248.927 171.397L243.636 187.68C248.171 189.154 253.139 187.539 255.942 183.682L242.09 173.618ZM285.544 113.808L242.09 173.618L255.942 183.682L299.396 123.872L285.544 113.808ZM285.721 113.567C285.661 113.648 285.603 113.728 285.545 113.808L299.395 123.873C299.427 123.829 299.458 123.787 299.489 123.745L285.721 113.567ZM213.075 23.7569L285.679 123.688L299.531 113.624L226.927 13.6932L213.075 23.7569ZM345.278 133.217C345.278 133.118 345.277 133.017 345.276 132.916L328.156 133.06C328.156 133.111 328.156 133.163 328.156 133.217H345.278ZM345.278 207.146L345.278 133.217L328.156 133.217L328.156 207.146L345.278 207.146ZM341.053 201.33C343.572 202.149 345.278 204.496 345.278 207.146L328.156 207.145C328.156 211.914 331.227 216.14 335.762 217.614L341.053 201.33ZM411.363 224.175L341.053 201.33L335.762 217.614L406.072 240.459L411.363 224.175ZM411.645 224.268C411.552 224.237 411.458 224.206 411.362 224.175L406.073 240.459C406.121 240.475 406.171 240.491 406.222 240.508L411.645 224.268ZM474.612 127.425L402.008 227.356L415.859 237.42L488.463 137.489L474.612 127.425ZM456.837 102.96C471.484 98.2006 483.664 114.965 474.612 127.425L488.463 137.489C507.265 111.611 481.968 76.7919 451.546 86.6764L456.837 102.96ZM339.361 141.13L456.837 102.96L451.546 86.6764L334.071 124.846L339.361 141.13ZM411.363 286.983C411.456 286.952 411.551 286.921 411.648 286.889L406.221 270.65C406.173 270.666 406.123 270.683 406.072 270.699L411.363 286.983ZM341.053 309.828L411.363 286.983L406.072 270.699L335.762 293.545L341.053 309.828ZM345.278 304.012C345.278 306.661 343.572 309.009 341.052 309.828L335.762 293.544C331.227 295.018 328.156 299.244 328.156 304.012H345.278ZM345.278 377.941V304.012H328.156V377.941H345.278ZM345.277 378.237C345.277 378.139 345.278 378.04 345.278 377.941H328.156C328.156 377.994 328.156 378.047 328.156 378.099L345.277 378.237ZM456.837 408.196L339.362 370.026L334.071 386.31L451.546 424.48L456.837 408.196ZM474.612 383.731C483.664 396.191 471.484 412.956 456.837 408.196L451.546 424.48C481.967 434.364 507.265 399.546 488.463 373.668L474.612 383.731ZM402.009 283.801L474.612 383.731L488.463 373.668L415.86 273.738L402.009 283.801ZM285.545 397.35C285.603 397.43 285.661 397.51 285.72 397.589L299.489 387.413C299.458 387.371 299.427 387.328 299.395 387.285L285.545 397.35ZM242.09 337.54L285.544 397.35L299.396 387.286L255.942 327.476L242.09 337.54ZM248.927 339.761C246.407 340.58 243.647 339.683 242.09 337.54L255.942 327.476C253.139 323.619 248.171 322.004 243.636 323.478L248.927 339.761ZM178.616 362.607L248.927 339.761L243.636 323.478L173.326 346.323L178.616 362.607ZM178.333 362.698C178.427 362.668 178.521 362.638 178.615 362.607L173.327 346.323C173.276 346.339 173.226 346.355 173.175 346.371L178.333 362.698ZM184.315 478.055L184.315 354.534L167.193 354.534L167.193 478.055L184.315 478.055ZM213.075 487.399C204.022 499.859 184.315 493.456 184.315 478.055H167.193C167.193 510.042 208.125 523.341 226.927 497.463L213.075 487.399ZM285.679 387.469L213.075 487.399L226.927 497.463L299.53 397.533L285.679 387.469ZM141.699 311.794C141.641 311.875 141.583 311.955 141.526 312.035L155.459 321.986C155.489 321.943 155.52 321.901 155.551 321.858L141.699 311.794ZM185.153 251.985L141.699 311.794L155.551 321.858L199.005 262.049L185.153 251.985ZM185.153 259.173C183.596 257.03 183.596 254.128 185.153 251.985L199.005 262.049C201.808 258.191 201.807 252.967 199.005 249.11L185.153 259.173ZM141.699 199.364L185.153 259.173L199.005 249.11L155.551 189.3L141.699 199.364ZM141.524 199.121C141.582 199.201 141.64 199.282 141.699 199.364L155.551 189.3C155.52 189.258 155.489 189.215 155.458 189.171L141.524 199.121ZM33.6615 240.458L151.137 202.288L145.846 186.004L28.3707 224.174L33.6615 240.458ZM33.6615 270.698C19.0141 265.939 19.0141 245.217 33.6615 240.458L28.3707 224.174C-2.05077 234.059 -2.05092 277.097 28.3707 286.982L33.6615 270.698ZM151.138 308.869L33.6615 270.698L28.3707 286.982L145.847 325.152L151.138 308.869Z" fill="currentColor"/>
<path d="M294.589 155.924C300.449 147.858 313.206 152.003 313.206 161.973L313.206 218.528C313.206 222.986 316.077 226.938 320.317 228.316L374.104 245.792C383.585 248.873 383.586 262.286 374.104 265.367L320.317 282.844C316.077 284.221 313.206 288.173 313.206 292.631L313.206 349.187C313.206 359.156 300.449 363.301 294.589 355.236L261.346 309.481C258.726 305.874 254.081 304.365 249.84 305.743L196.053 323.219C186.572 326.3 178.687 315.448 184.547 307.383L217.79 261.629C220.41 258.022 220.41 253.138 217.79 249.531L184.547 203.776C178.687 195.711 186.572 184.859 196.053 187.94L249.84 205.416C254.081 206.794 258.726 205.285 261.346 201.678L294.589 155.924Z" fill="currentColor"/>
</svg>
