<?xml version="1.0" standalone="no"?>
<!DOCTYPE svg PUBLIC "-//W3C//DTD SVG 20010904//EN"
 "http://www.w3.org/TR/2001/REC-SVG-20010904/DTD/svg10.dtd">
<svg version="1.0" xmlns="http://www.w3.org/2000/svg"
 width="512.000000pt" height="512.000000pt" viewBox="0 0 512.000000 512.000000"
 preserveAspectRatio="xMidYMid meet">
<metadata>
Created by potrace 1.14, written by Peter Selinger 2001-2017
</metadata>
<g transform="translate(0.000000,512.000000) scale(0.100000,-0.100000)"
fill="#000000" stroke="none">
<path d="M1906 5104 c-107 -34 -185 -109 -215 -209 -18 -56 -19 -106 -19 -732
l-1 -672 62 -20 c34 -11 208 -67 387 -125 179 -58 337 -106 352 -106 40 0 70
17 99 58 14 20 83 116 153 212 70 96 134 184 142 195 7 11 48 66 90 122 47 65
72 108 68 115 -8 13 -129 182 -164 228 -10 14 -148 203 -305 420 -157 217
-302 412 -322 432 -77 81 -219 117 -327 82z"/>
<path d="M4555 4264 c-11 -3 -119 -38 -240 -77 -121 -39 -222 -71 -225 -72 -3
-1 -50 -16 -105 -34 -55 -18 -107 -35 -115 -37 -8 -2 -69 -21 -135 -43 -66
-22 -194 -64 -285 -94 l-165 -53 0 -427 0 -427 25 -24 c18 -18 92 -47 260
-101 129 -42 306 -100 393 -128 156 -51 159 -51 173 -32 8 11 21 28 29 38 8 9
15 21 15 26 0 5 3 11 8 13 4 2 36 44 72 93 35 50 68 95 72 100 5 6 62 84 128
175 66 91 126 174 134 185 8 11 74 101 146 200 72 99 142 196 155 216 135 206
-9 494 -253 505 -37 1 -76 1 -87 -2z"/>
<path d="M2993 3595 c-17 -7 -39 -25 -49 -39 -11 -15 -26 -35 -34 -45 -8 -10
-40 -54 -70 -96 -30 -42 -73 -101 -95 -130 -22 -30 -58 -79 -80 -111 -72 -103
-105 -125 -162 -108 -16 4 -30 8 -33 9 -3 0 -119 38 -259 84 -140 45 -266 84
-280 86 -55 6 -105 -46 -103 -106 1 -33 17 -57 197 -304 186 -255 189 -260
160 -316 -10 -18 -21 -37 -26 -43 -9 -11 -124 -168 -171 -234 -34 -47 -43 -60
-103 -141 -52 -71 -60 -90 -55 -135 3 -26 31 -64 52 -71 43 -15 72 -9 285 61
125 41 239 77 252 80 13 3 32 9 41 14 30 16 78 20 106 10 32 -12 25 -5 224
-278 87 -119 167 -225 177 -235 24 -21 79 -25 111 -8 52 28 53 36 54 368 0
326 3 349 48 373 16 9 197 69 530 176 54 17 61 22 83 54 33 49 15 119 -37 143
-17 8 -146 52 -286 97 -140 45 -267 89 -282 96 -53 27 -57 48 -57 320 0 395 2
370 -23 399 -31 34 -76 46 -115 30z"/>
<path d="M1470 3265 c-19 -8 -91 -32 -160 -54 -534 -170 -1062 -346 -1097
-367 -111 -65 -175 -205 -151 -334 19 -108 77 -189 165 -233 26 -14 190 -70
363 -126 173 -57 443 -144 600 -196 157 -51 294 -95 306 -99 23 -7 6 -28 294
367 198 271 220 305 220 341 0 34 -17 62 -137 228 -46 62 -142 194 -214 293
-71 99 -136 183 -142 186 -7 4 -28 1 -47 -6z"/>
<path d="M3895 2359 c-115 -38 -217 -71 -226 -73 -40 -10 -307 -100 -331 -112
-55 -28 -56 -34 -57 -475 0 -222 3 -410 7 -416 6 -9 224 -82 927 -310 110 -35
230 -75 266 -88 87 -30 192 -31 260 -3 171 71 256 285 177 442 -18 37 -139
208 -318 451 -37 50 -158 216 -269 370 -112 154 -208 281 -215 282 -6 1 -105
-29 -221 -68z"/>
<path d="M2426 1883 c-3 -4 -12 -8 -19 -9 -10 -1 -618 -197 -704 -227 l-32
-11 0 -674 c1 -645 2 -677 21 -733 25 -76 89 -147 165 -185 51 -26 69 -29 148
-29 106 0 157 20 224 88 23 23 141 179 262 347 121 168 242 334 269 370 160
217 270 374 268 379 -13 28 -484 664 -501 676 -22 15 -88 21 -101 8z"/>
</g>
</svg>
